<svg width="185" height="70" viewBox="0 0 185 70" fill="none" xmlns="http://www.w3.org/2000/svg">
<path fill-rule="evenodd" clip-rule="evenodd" d="M66.5 53.6667H3.5C1.568 53.6667 0 52.0987 0 50.1667V3.5C0 1.568 1.568 0 3.5 0H66.5C68.432 0 70 1.568 70 3.5V50.1667C70 52.0987 68.432 53.6667 66.5 53.6667Z" fill="#0455BF"/>
<path fill-rule="evenodd" clip-rule="evenodd" d="M59.5001 49H7.00008C5.71208 49 4.66675 47.9547 4.66675 46.6667V7C4.66675 5.712 5.71208 4.66667 7.00008 4.66667H58.3334C59.6214 4.66667 60.6667 5.712 60.6667 7V47.8333C60.6667 48.4773 60.1441 49 59.5001 49Z" fill="#FDFEFF"/>
<path fill-rule="evenodd" clip-rule="evenodd" d="M7.00008 46.6667V7C7.00008 5.712 8.04541 4.66667 9.33341 4.66667H7.00008C5.71208 4.66667 4.66675 5.712 4.66675 7V46.6667C4.66675 47.9547 5.71208 49 7.00008 49H9.33341C8.04541 49 7.00008 47.9547 7.00008 46.6667Z" fill="#DFEAEF"/>
<path fill-rule="evenodd" clip-rule="evenodd" d="M45.5 26.8333C45.5 32.6309 40.7976 37.3333 35 37.3333C29.2024 37.3333 24.5 32.6309 24.5 26.8333C24.5 21.0358 29.2024 16.3333 35 16.3333C40.7976 16.3333 45.5 21.0358 45.5 26.8333Z" fill="#0455BF"/>
<path fill-rule="evenodd" clip-rule="evenodd" d="M39.6666 31.5C39.6666 30.6678 40.1162 29.9024 40.8333 29.4887C39.284 28.5709 37.3209 29.6956 37.3333 31.5V35C38.1173 35 38.9013 34.9082 39.6666 34.7324V31.5Z" fill="#004787"/>
<path fill-rule="evenodd" clip-rule="evenodd" d="M37.3332 35C33.3837 35.0062 29.7686 32.7942 27.975 29.2756C26.183 25.7584 26.5174 21.5351 28.8383 18.3384C26.3479 20.1429 24.7737 22.9444 24.531 26.0073C24.2868 29.0702 25.399 32.0833 27.5752 34.258C29.7437 36.428 32.7583 37.5402 35.8197 37.2976C38.8826 37.0533 41.6903 35.4807 43.4886 32.9887C41.7028 34.2953 39.5452 35 37.3332 35Z" fill="#004787"/>
<path fill-rule="evenodd" clip-rule="evenodd" d="M32.6667 31.5C32.0227 31.5 31.5 30.9773 31.5 30.3333V23.3333C31.5 22.4638 32.4116 21.8991 33.1893 22.288L40.1893 25.788C40.9002 26.1473 41.0527 27.0947 40.4927 27.6531C40.3107 27.8367 40.3107 27.8367 33.1893 31.3724C33.0244 31.458 32.8487 31.5 32.6667 31.5Z" fill="#FEBC00"/>
<path fill-rule="evenodd" clip-rule="evenodd" d="M40.1891 25.7882L39.9605 25.673L35.5225 27.8788C34.7447 28.2677 33.8331 27.703 33.8331 26.8335V22.6102L33.1891 22.2882C32.4113 21.8993 31.4998 22.4639 31.4998 23.3335V30.3335C31.4936 31.203 32.4051 31.7677 33.1829 31.385C40.298 27.8477 40.298 27.8477 40.4862 27.6657C41.0462 27.101 40.8938 26.1522 40.1829 25.8006L40.1891 25.7882Z" fill="#EDAA03"/>
<path fill-rule="evenodd" clip-rule="evenodd" d="M22.1667 39.6667H11.6667V42H44.3334V39.6667H22.1667Z" fill="#0455BF"/>
<path fill-rule="evenodd" clip-rule="evenodd" d="M65.3333 24.5C66.6213 24.5 67.6667 25.788 67.6667 26.8333C67.6667 28.1213 66.6213 29.1667 65.3333 29.1667C64.0453 29.1667 63 27.8787 63 26.8333C63 25.5453 64.0453 24.5 65.3333 24.5Z" fill="#FEBC00"/>
<path fill-rule="evenodd" clip-rule="evenodd" d="M66.5001 28C64.8045 28.0062 63.6752 26.25 64.3799 24.7131C62.885 25.3742 62.5194 27.3373 63.6752 28.4916C64.8356 29.652 66.7925 29.288 67.4599 27.7931C67.1565 27.9269 66.8283 28 66.5001 28Z" fill="#EDAA03"/>
<path fill-rule="evenodd" clip-rule="evenodd" d="M56 46.6667C54.712 46.6667 53.6666 47.712 53.6666 49V45.5C53.6666 42.3889 49 42.3889 49 45.5V40.8333C49 37.7222 44.3333 37.7222 44.3333 40.8333V31.5C44.3333 28.3889 39.6666 28.3889 39.6666 31.5V55.034C39.6666 56.3282 38.1049 56.9722 37.1933 56.0607L32.6666 51.534C31.7613 50.5976 30.2602 50.5867 29.3424 51.5091C28.42 52.4269 28.4309 53.928 29.3673 54.8333L34.314 59.7862L36.3969 61.8644C38.5544 64.0204 39.7693 66.9496 39.7693 70H55.314V69.5629C55.314 67.886 55.8413 66.2511 56.8198 64.8838C57.8044 63.5227 58.3333 61.8878 58.3333 60.2109V49C58.3333 47.712 57.288 46.6667 56 46.6667Z" fill="#ECC19C"/>
<path fill-rule="evenodd" clip-rule="evenodd" d="M18.6668 43.1667C16.5886 43.1667 15.5494 40.6513 17.0148 39.1813C18.4848 37.716 21.0001 38.7551 21.0001 40.8333C21.0001 42.1213 19.9548 43.1667 18.6668 43.1667Z" fill="#FEBC00"/>
<path fill-rule="evenodd" clip-rule="evenodd" d="M19.8333 42C18.1378 42.0062 17.0084 40.25 17.7131 38.7131C16.2182 39.3742 15.8527 41.3373 17.0084 42.4916C18.1689 43.652 20.1258 43.288 20.7931 41.7931C20.4898 41.9269 20.1616 42 19.8333 42Z" fill="#EDAA03"/>
<path fill-rule="evenodd" clip-rule="evenodd" d="M29.3673 51.5338C29.5135 51.3938 29.6768 51.2725 29.8479 51.1698C28.1026 50.1478 25.9762 51.6925 26.4024 53.6665H28.7357C28.5708 52.895 28.8088 52.0923 29.3673 51.5338ZM37.3333 53.6665H39.6666V48.9998H37.3333V53.6665Z" fill="#004787"/>
<mask id="mask0_0_153" style="mask-type:luminance" maskUnits="userSpaceOnUse" x="0" y="0" width="70" height="70">
<path fill-rule="evenodd" clip-rule="evenodd" d="M0 70H70V0H0V70Z" fill="white"/>
</mask>
<g mask="url(#mask0_0_153)">
<path fill-rule="evenodd" clip-rule="evenodd" d="M37.3334 49H39.6667V42H37.3334V49ZM39.6667 36.2273C39.3929 36.3611 39.1145 36.4887 38.8345 36.5976C38.7365 36.6349 38.64 36.6707 38.5358 36.708C38.2745 36.8044 38.0085 36.8838 37.7347 36.9569C37.6196 36.9864 37.492 37.0238 37.3691 37.0533L37.3271 37.0658V39.6667H39.6605L39.6667 36.2273Z" fill="#DFEAEF"/>
<path fill-rule="evenodd" clip-rule="evenodd" d="M39.6666 34.7326C38.9013 34.9084 38.1173 35.0002 37.3333 35.0002V37.0597L37.3753 37.0535C37.8746 36.9322 38.3599 36.7797 38.8344 36.5977C39.119 36.4826 39.399 36.3675 39.6666 36.2213V34.7326ZM37.3333 42.0002H39.6666V39.6668H37.3333V42.0002Z" fill="#004787"/>
</g>
<g clip-path="url(#clip0_0_153)">
<path d="M101.242 13.44H97.3118L96.7418 11.52H107.542V13.44H103.312V30H101.242V13.44ZM112.582 23.79V27.72C113.042 28.04 113.542 28.25 114.082 28.35C114.622 28.45 115.122 28.5 115.582 28.5C116.442 28.5 117.212 28.41 117.892 28.23C118.592 28.03 119.262 27.71 119.902 27.27V29.28C119.302 29.64 118.642 29.9 117.922 30.06C117.222 30.22 116.462 30.3 115.642 30.3C114.362 30.3 113.232 30.12 112.252 29.76C111.292 29.4 110.412 28.87 109.612 28.17L110.662 26.94V22.05C110.662 21.67 110.662 21.22 110.662 20.7C110.682 20.18 110.772 19.64 110.932 19.08C111.092 18.52 111.382 18 111.802 17.52C112.342 16.92 112.922 16.55 113.542 16.41C114.182 16.27 114.752 16.2 115.252 16.2C115.772 16.2 116.342 16.27 116.962 16.41C117.602 16.55 118.182 16.92 118.702 17.52C119.122 18 119.412 18.52 119.572 19.08C119.752 19.64 119.852 20.18 119.872 20.7C119.892 21.22 119.902 21.67 119.902 22.05V23.79H112.582ZM117.802 21.99C117.802 21.55 117.782 21.05 117.742 20.49C117.702 19.93 117.542 19.44 117.262 19.02C117.142 18.82 116.922 18.6 116.602 18.36C116.282 18.12 115.812 18 115.192 18C114.592 18 114.122 18.12 113.782 18.36C113.462 18.6 113.232 18.82 113.092 19.02C112.832 19.44 112.682 19.93 112.642 20.49C112.602 21.05 112.582 21.55 112.582 21.99H117.802ZM127.234 10.35V22.23C127.234 23.33 127.284 24.26 127.384 25.02C127.504 25.76 127.774 26.42 128.194 27C128.614 27.58 129.284 28.15 130.204 28.71L129.214 30.3C128.114 29.72 127.284 29.07 126.724 28.35C126.164 27.61 125.784 26.75 125.584 25.77C125.404 24.79 125.314 23.61 125.314 22.23V12.24L124.714 10.35H127.234ZM136.084 23.79V27.72C136.544 28.04 137.044 28.25 137.584 28.35C138.124 28.45 138.624 28.5 139.084 28.5C139.944 28.5 140.714 28.41 141.394 28.23C142.094 28.03 142.764 27.71 143.404 27.27V29.28C142.804 29.64 142.144 29.9 141.424 30.06C140.724 30.22 139.964 30.3 139.144 30.3C137.864 30.3 136.734 30.12 135.754 29.76C134.794 29.4 133.914 28.87 133.114 28.17L134.164 26.94V22.05C134.164 21.67 134.164 21.22 134.164 20.7C134.184 20.18 134.274 19.64 134.434 19.08C134.594 18.52 134.884 18 135.304 17.52C135.844 16.92 136.424 16.55 137.044 16.41C137.684 16.27 138.254 16.2 138.754 16.2C139.274 16.2 139.844 16.27 140.464 16.41C141.104 16.55 141.684 16.92 142.204 17.52C142.624 18 142.914 18.52 143.074 19.08C143.254 19.64 143.354 20.18 143.374 20.7C143.394 21.22 143.404 21.67 143.404 22.05V23.79H136.084ZM141.304 21.99C141.304 21.55 141.284 21.05 141.244 20.49C141.204 19.93 141.044 19.44 140.764 19.02C140.644 18.82 140.424 18.6 140.104 18.36C139.784 18.12 139.314 18 138.694 18C138.094 18 137.624 18.12 137.284 18.36C136.964 18.6 136.734 18.82 136.594 19.02C136.334 19.44 136.184 19.93 136.144 20.49C136.104 21.05 136.084 21.55 136.084 21.99H141.304ZM150.316 16.2C151.156 16.2 151.996 16.28 152.836 16.44C153.676 16.58 154.446 16.84 155.146 17.22C155.846 17.58 156.406 18.11 156.826 18.81C157.246 19.49 157.456 20.37 157.456 21.45V27.45L158.266 28.83C157.346 29.35 156.426 29.73 155.506 29.97C154.606 30.19 153.776 30.3 153.016 30.3C152.036 30.3 151.246 30.18 150.646 29.94C150.046 29.68 149.576 29.39 149.236 29.07C148.916 28.73 148.636 28.31 148.396 27.81C148.156 27.29 148.036 26.71 148.036 26.07C148.036 25.07 148.246 24.25 148.666 23.61C149.086 22.95 149.646 22.44 150.346 22.08C151.066 21.72 151.866 21.47 152.746 21.33C153.646 21.17 154.576 21.09 155.536 21.09C155.496 20.43 155.296 19.91 154.936 19.53C154.596 19.13 154.156 18.83 153.616 18.63C153.096 18.43 152.536 18.3 151.936 18.24C151.336 18.16 150.746 18.11 150.166 18.09L150.316 16.2ZM155.536 22.89C155.056 22.89 154.506 22.92 153.886 22.98C153.266 23.04 152.666 23.17 152.086 23.37C151.506 23.55 151.026 23.84 150.646 24.24C150.266 24.64 150.076 25.18 150.076 25.86C150.076 26.32 150.146 26.71 150.286 27.03C150.426 27.33 150.586 27.56 150.766 27.72C151.086 28.04 151.446 28.25 151.846 28.35C152.266 28.45 152.676 28.5 153.076 28.5C153.556 28.5 153.996 28.45 154.396 28.35C154.796 28.25 155.176 28.13 155.536 27.99V22.89ZM173.495 28.92C172.875 29.28 172.135 29.6 171.275 29.88C170.415 30.16 169.465 30.3 168.425 30.3C167.065 30.3 165.965 29.96 165.125 29.28C164.285 28.6 163.675 27.73 163.295 26.67C162.935 25.59 162.755 24.45 162.755 23.25C162.755 22.05 162.955 20.92 163.355 19.86C163.775 18.78 164.395 17.9 165.215 17.22C166.035 16.54 167.065 16.2 168.305 16.2C168.765 16.2 169.185 16.23 169.565 16.29C169.945 16.35 170.345 16.44 170.765 16.56V12.24L170.165 10.35H172.685V27.39L173.495 28.92ZM170.765 18.48C170.545 18.38 170.245 18.28 169.865 18.18C169.505 18.06 169.085 18 168.605 18C167.625 18 166.855 18.27 166.295 18.81C165.735 19.35 165.335 20.03 165.095 20.85C164.855 21.65 164.735 22.45 164.735 23.25C164.735 24.05 164.835 24.86 165.035 25.68C165.255 26.48 165.645 27.15 166.205 27.69C166.765 28.23 167.545 28.5 168.545 28.5C169.385 28.5 170.125 28.34 170.765 28.02V18.48Z" fill="#332DA1"/>
<path d="M84.3815 44.779H86.9115V46H82.8415V38.322H84.3815V44.779ZM89.4303 39.565V41.49H92.0153V42.711H89.4303V44.746H92.3453V46H87.8903V38.311H92.3453V39.565H89.4303ZM98.4528 44.537H95.3948L94.8888 46H93.2718L96.0328 38.311H97.8258L100.587 46H98.9588L98.4528 44.537ZM98.0348 43.305L96.9238 40.093L95.8128 43.305H98.0348ZM105.579 46L103.885 43.008H103.159V46H101.619V38.322H104.501C105.095 38.322 105.601 38.4283 106.019 38.641C106.437 38.8463 106.749 39.1287 106.954 39.488C107.167 39.84 107.273 40.236 107.273 40.676C107.273 41.182 107.126 41.6403 106.833 42.051C106.54 42.4543 106.103 42.733 105.524 42.887L107.361 46H105.579ZM103.159 41.853H104.446C104.864 41.853 105.176 41.754 105.381 41.556C105.586 41.3507 105.689 41.0683 105.689 40.709C105.689 40.357 105.586 40.0857 105.381 39.895C105.176 39.697 104.864 39.598 104.446 39.598H103.159V41.853ZM115.233 46H113.693L110.206 40.731V46H108.666V38.311H110.206L113.693 43.591V38.311H115.233V46ZM124.117 38.322V39.565H120.916V41.534H123.369V42.755H120.916V46H119.376V38.322H124.117ZM129.169 46L127.475 43.008H126.749V46H125.209V38.322H128.091C128.685 38.322 129.191 38.4283 129.609 38.641C130.027 38.8463 130.338 39.1287 130.544 39.488C130.756 39.84 130.863 40.236 130.863 40.676C130.863 41.182 130.716 41.6403 130.423 42.051C130.129 42.4543 129.693 42.733 129.114 42.887L130.951 46H129.169ZM126.749 41.853H128.036C128.454 41.853 128.765 41.754 128.971 41.556C129.176 41.3507 129.279 41.0683 129.279 40.709C129.279 40.357 129.176 40.0857 128.971 39.895C128.765 39.697 128.454 39.598 128.036 39.598H126.749V41.853ZM135.82 46.077C135.101 46.077 134.441 45.9083 133.84 45.571C133.238 45.2337 132.762 44.768 132.41 44.174C132.058 43.5727 131.882 42.8943 131.882 42.139C131.882 41.391 132.058 40.72 132.41 40.126C132.762 39.5247 133.238 39.0553 133.84 38.718C134.441 38.3807 135.101 38.212 135.82 38.212C136.546 38.212 137.206 38.3807 137.8 38.718C138.401 39.0553 138.874 39.5247 139.219 40.126C139.571 40.72 139.747 41.391 139.747 42.139C139.747 42.8943 139.571 43.5727 139.219 44.174C138.874 44.768 138.401 45.2337 137.8 45.571C137.198 45.9083 136.538 46.077 135.82 46.077ZM135.82 44.702C136.282 44.702 136.689 44.5993 137.041 44.394C137.393 44.1813 137.668 43.8807 137.866 43.492C138.064 43.1033 138.163 42.6523 138.163 42.139C138.163 41.6257 138.064 41.1783 137.866 40.797C137.668 40.4083 137.393 40.1113 137.041 39.906C136.689 39.7007 136.282 39.598 135.82 39.598C135.358 39.598 134.947 39.7007 134.588 39.906C134.236 40.1113 133.961 40.4083 133.763 40.797C133.565 41.1783 133.466 41.6257 133.466 42.139C133.466 42.6523 133.565 43.1033 133.763 43.492C133.961 43.8807 134.236 44.1813 134.588 44.394C134.947 44.5993 135.358 44.702 135.82 44.702ZM149.263 38.322V46H147.723V41.006L145.666 46H144.5L142.432 41.006V46H140.892V38.322H142.641L145.083 44.031L147.525 38.322H149.263ZM159.776 38.322V46H158.236V42.733H154.947V46H153.407V38.322H154.947V41.479H158.236V38.322H159.776ZM164.856 46.077C164.137 46.077 163.477 45.9083 162.876 45.571C162.274 45.2337 161.798 44.768 161.446 44.174C161.094 43.5727 160.918 42.8943 160.918 42.139C160.918 41.391 161.094 40.72 161.446 40.126C161.798 39.5247 162.274 39.0553 162.876 38.718C163.477 38.3807 164.137 38.212 164.856 38.212C165.582 38.212 166.242 38.3807 166.836 38.718C167.437 39.0553 167.91 39.5247 168.255 40.126C168.607 40.72 168.783 41.391 168.783 42.139C168.783 42.8943 168.607 43.5727 168.255 44.174C167.91 44.768 167.437 45.2337 166.836 45.571C166.234 45.9083 165.574 46.077 164.856 46.077ZM164.856 44.702C165.318 44.702 165.725 44.5993 166.077 44.394C166.429 44.1813 166.704 43.8807 166.902 43.492C167.1 43.1033 167.199 42.6523 167.199 42.139C167.199 41.6257 167.1 41.1783 166.902 40.797C166.704 40.4083 166.429 40.1113 166.077 39.906C165.725 39.7007 165.318 39.598 164.856 39.598C164.394 39.598 163.983 39.7007 163.624 39.906C163.272 40.1113 162.997 40.4083 162.799 40.797C162.601 41.1783 162.502 41.6257 162.502 42.139C162.502 42.6523 162.601 43.1033 162.799 43.492C162.997 43.8807 163.272 44.1813 163.624 44.394C163.983 44.5993 164.394 44.702 164.856 44.702ZM178.299 38.322V46H176.759V41.006L174.702 46H173.536L171.468 41.006V46H169.928V38.322H171.677L174.119 44.031L176.561 38.322H178.299ZM181.362 39.565V41.49H183.947V42.711H181.362V44.746H184.277V46H179.822V38.311H184.277V39.565H181.362Z" fill="black"/>
</g>
<defs>
<clipPath id="clip0_0_153">
<rect width="103" height="45" fill="white" transform="translate(82 5)"/>
</clipPath>
</defs>
</svg>
